<svg width="155" height="47" viewBox="0 0 155 47" fill="none" xmlns="http://www.w3.org/2000/svg">
<path d="M11.2073 16.9091V30H8.43954V16.9091H11.2073ZM24.434 16.9091V30H22.0434L16.3481 21.7607H16.2522V30H13.4845V16.9091H15.9134L21.564 25.142H21.6791V16.9091H24.434ZM37.6704 16.9091V30H35.2797L29.5844 21.7607H29.4885V30H26.7208V16.9091H29.1498L34.8003 25.142H34.9154V16.9091H37.6704ZM51.987 23.4545C51.987 24.8821 51.7164 26.0966 51.1752 27.098C50.6382 28.0994 49.9053 28.8643 48.9763 29.3928C48.0516 29.9169 47.0118 30.179 45.857 30.179C44.6936 30.179 43.6496 29.9148 42.7249 29.3864C41.8002 28.858 41.0693 28.093 40.5324 27.0916C39.9955 26.0902 39.727 24.8778 39.727 23.4545C39.727 22.027 39.9955 20.8125 40.5324 19.8111C41.0693 18.8097 41.8002 18.0469 42.7249 17.5227C43.6496 16.9943 44.6936 16.7301 45.857 16.7301C47.0118 16.7301 48.0516 16.9943 48.9763 17.5227C49.9053 18.0469 50.6382 18.8097 51.1752 19.8111C51.7164 20.8125 51.987 22.027 51.987 23.4545ZM49.1808 23.4545C49.1808 22.5298 49.0423 21.75 48.7654 21.1151C48.4926 20.4801 48.107 19.9986 47.6084 19.6705C47.1098 19.3423 46.526 19.1783 45.857 19.1783C45.1879 19.1783 44.6041 19.3423 44.1056 19.6705C43.607 19.9986 43.2192 20.4801 42.9422 21.1151C42.6695 21.75 42.5331 22.5298 42.5331 23.4545C42.5331 24.3793 42.6695 25.1591 42.9422 25.794C43.2192 26.429 43.607 26.9105 44.1056 27.2386C44.6041 27.5668 45.1879 27.7308 45.857 27.7308C46.526 27.7308 47.1098 27.5668 47.6084 27.2386C48.107 26.9105 48.4926 26.429 48.7654 25.794C49.0423 25.1591 49.1808 24.3793 49.1808 23.4545ZM54.0372 16.9091H57.4506L61.0557 25.7045H61.2091L64.8142 16.9091H68.2275V30H65.5429V21.4794H65.4342L62.0464 29.9361H60.2183L56.8305 21.4474H56.7219V30H54.0372V16.9091ZM87.172 30V16.9091H92.3367C93.3296 16.9091 94.1755 17.0987 94.8744 17.478C95.5732 17.853 96.1059 18.375 96.4724 19.044C96.8431 19.7088 97.0285 20.4759 97.0285 21.3452C97.0285 22.2145 96.841 22.9815 96.466 23.6463C96.091 24.3111 95.5477 24.8288 94.836 25.1996C94.1286 25.5703 93.2721 25.7557 92.2664 25.7557H88.9745V23.5376H91.819C92.3517 23.5376 92.7906 23.446 93.1357 23.2628C93.4852 23.0753 93.7451 22.8175 93.9156 22.4893C94.0903 22.157 94.1776 21.7756 94.1776 21.3452C94.1776 20.9105 94.0903 20.5312 93.9156 20.2074C93.7451 19.8793 93.4852 19.6257 93.1357 19.4467C92.7863 19.2635 92.3431 19.1719 91.8062 19.1719H89.9397V30H87.172ZM98.3277 19.1911V16.9091H109.079V19.1911H105.071V30H102.335V19.1911H98.3277ZM110.85 30V16.9091H119.671V19.1911H113.617V22.3104H119.217V24.5923H113.617V27.718H119.696V30H110.85ZM133.422 21.4922H130.622C130.571 21.13 130.466 20.8082 130.309 20.527C130.151 20.2415 129.949 19.9986 129.701 19.7983C129.454 19.598 129.169 19.4446 128.845 19.3381C128.525 19.2315 128.178 19.1783 127.803 19.1783C127.125 19.1783 126.535 19.3466 126.032 19.6832C125.53 20.0156 125.14 20.5014 124.863 21.1406C124.586 21.7756 124.447 22.5469 124.447 23.4545C124.447 24.3878 124.586 25.1719 124.863 25.8068C125.144 26.4418 125.536 26.9212 126.039 27.245C126.542 27.5689 127.123 27.7308 127.784 27.7308C128.155 27.7308 128.498 27.6818 128.813 27.5838C129.133 27.4858 129.416 27.343 129.663 27.1555C129.91 26.9638 130.115 26.7315 130.277 26.4588C130.443 26.1861 130.558 25.875 130.622 25.5256L133.422 25.5384C133.349 26.1392 133.168 26.7188 132.878 27.277C132.593 27.831 132.207 28.3274 131.721 28.7663C131.24 29.201 130.665 29.5462 129.995 29.8018C129.331 30.0533 128.579 30.179 127.739 30.179C126.571 30.179 125.527 29.9148 124.607 29.3864C123.691 28.858 122.966 28.093 122.434 27.0916C121.905 26.0902 121.641 24.8778 121.641 23.4545C121.641 22.027 121.91 20.8125 122.446 19.8111C122.983 18.8097 123.712 18.0469 124.633 17.5227C125.553 16.9943 126.589 16.7301 127.739 16.7301C128.498 16.7301 129.201 16.8366 129.848 17.0497C130.5 17.2628 131.078 17.5739 131.581 17.983C132.084 18.3878 132.493 18.8842 132.808 19.4723C133.128 20.0604 133.332 20.7337 133.422 21.4922ZM135.406 30V16.9091H138.174V22.3104H143.793V16.9091H146.554V30H143.793V24.5923H138.174V30H135.406Z" fill="#1D7D72"/>
<circle cx="78" cy="23" r="8" fill="#E9C46A"/>
<g filter="url(#filter0_i_9_50)">
<path d="M78 18L83 27C79.0699 25.1677 76.8829 25.2252 73 27L78 18Z" fill="#1D7D72"/>
</g>
<ellipse cx="78" cy="25.5" rx="1" ry="2.5" fill="#E9C46A"/>
<defs>
<filter id="filter0_i_9_50" x="73" y="18" width="10" height="13" filterUnits="userSpaceOnUse" color-interpolation-filters="sRGB">
<feFlood flood-opacity="0" result="BackgroundImageFix"/>
<feBlend mode="normal" in="SourceGraphic" in2="BackgroundImageFix" result="shape"/>
<feColorMatrix in="SourceAlpha" type="matrix" values="0 0 0 0 0 0 0 0 0 0 0 0 0 0 0 0 0 0 127 0" result="hardAlpha"/>
<feOffset dy="4"/>
<feGaussianBlur stdDeviation="2"/>
<feComposite in2="hardAlpha" operator="arithmetic" k2="-1" k3="1"/>
<feColorMatrix type="matrix" values="0 0 0 0 0 0 0 0 0 0 0 0 0 0 0 0 0 0 0.25 0"/>
<feBlend mode="normal" in2="shape" result="effect1_innerShadow_9_50"/>
</filter>
</defs>
</svg>
